<?xml version="1.0" standalone="no"?>
<!DOCTYPE svg PUBLIC "-//W3C//DTD SVG 20010904//EN"
 "http://www.w3.org/TR/2001/REC-SVG-20010904/DTD/svg10.dtd">
<svg version="1.0" xmlns="http://www.w3.org/2000/svg"
 width="512.000000pt" height="512.000000pt" viewBox="0 0 512.000000 512.000000"
 preserveAspectRatio="xMidYMid meet">

<g transform="translate(0.000000,512.000000) scale(0.100000,-0.100000)"
fill="#000000" stroke="none">
<path d="M2342 4962 l-213 -157 215 -3 c119 -1 313 -1 432 0 l216 3 -215 158
c-119 86 -217 157 -219 156 -2 0 -99 -71 -216 -157z"/>
<path d="M610 3707 l0 -793 852 -707 853 -707 245 0 246 0 340 282 c188 156
571 474 852 708 l512 424 0 793 0 793 -1950 0 -1950 0 0 -793z m2190 165 c457
-119 777 -497 806 -951 8 -119 -6 -193 -53 -283 -120 -231 -416 -306 -640
-162 l-53 34 -53 -34 c-184 -118 -410 -94 -562 59 -137 136 -171 336 -88 513
34 73 131 170 203 204 90 41 144 48 405 48 l245 0 0 -240 c0 -222 2 -244 20
-280 13 -26 34 -47 60 -60 109 -56 220 20 220 150 0 172 -89 376 -221 509
-421 421 -1143 203 -1263 -381 -98 -475 292 -926 774 -895 52 4 120 13 150 22
30 8 57 11 61 7 13 -15 98 -271 91 -275 -4 -3 -47 -15 -97 -28 -125 -33 -370
-33 -488 -1 -398 109 -670 381 -779 782 -32 115 -31 362 1 484 109 420 448
730 866 796 93 14 308 4 395 -18z"/>
<path d="M2488 2979 c-43 -22 -78 -81 -78 -129 0 -50 35 -107 80 -130 21 -11
53 -20 70 -20 50 0 107 35 130 80 16 31 20 59 20 130 l0 90 -92 0 c-73 -1
-101 -5 -130 -21z"/>
<path d="M218 3388 c-48 -35 -87 -66 -87 -69 -1 -3 38 -39 87 -79 l87 -72 3
71 c2 39 2 103 0 141 l-3 70 -87 -62z"/>
<path d="M4810 3310 c0 -110 3 -140 13 -134 24 15 167 137 167 143 0 5 -130
101 -167 124 -10 6 -13 -19 -13 -133z"/>
<path d="M0 1606 c0 -784 2 -1426 5 -1426 8 0 1969 1171 1981 1184 9 8 -228
210 -920 783 -512 425 -961 798 -998 828 l-68 57 0 -1426z"/>
<path d="M4125 2205 c-545 -452 -990 -827 -990 -833 0 -12 1974 -1196 1981
-1189 2 2 3 643 2 1424 l-3 1420 -990 -822z"/>
<path d="M1298 602 l-997 -597 1129 -3 c622 -1 1639 -1 2260 0 l1130 3 -1000
598 -1000 597 -263 -1 -262 -1 -997 -596z"/>
</g>
</svg>
