<?xml version="1.0" standalone="no"?>
<!DOCTYPE svg PUBLIC "-//W3C//DTD SVG 20010904//EN"
 "http://www.w3.org/TR/2001/REC-SVG-20010904/DTD/svg10.dtd">
<svg version="1.0" xmlns="http://www.w3.org/2000/svg"
 width="512.000000pt" height="512.000000pt" viewBox="0 0 512.000000 512.000000"
 preserveAspectRatio="xMidYMid meet">

<g transform="translate(0.000000,512.000000) scale(0.100000,-0.100000)"
fill="#000000" stroke="none">
<path d="M959 4466 c-151 -42 -272 -170 -309 -326 -16 -66 -8 -311 15 -499 84
-671 364 -1307 800 -1811 560 -648 1329 -1060 2176 -1165 186 -23 422 -30 494
-15 163 33 300 167 334 328 17 83 14 475 -4 547 -29 111 -112 217 -207 266
-90 46 -518 210 -575 221 -173 32 -361 -68 -452 -240 -38 -73 -28 -72 -181
-22 -460 150 -856 461 -1099 863 -97 161 -210 425 -236 554 -6 30 -4 32 57 64
172 91 272 279 240 452 -11 56 -177 489 -222 577 -48 93 -155 176 -265 205
-77 19 -495 20 -566 1z"/>
</g>
</svg>
