<?xml version="1.0" standalone="no"?>
<!DOCTYPE svg PUBLIC "-//W3C//DTD SVG 20010904//EN"
 "http://www.w3.org/TR/2001/REC-SVG-20010904/DTD/svg10.dtd">
<svg version="1.0" xmlns="http://www.w3.org/2000/svg"
 width="512.000000pt" height="512.000000pt" viewBox="0 0 512.000000 512.000000"
 preserveAspectRatio="xMidYMid meet">

<g transform="translate(0.000000,512.000000) scale(0.100000,-0.100000)"
fill="#000000" stroke="none">
<path d="M2360 4789 c-733 -83 -1354 -631 -1516 -1339 -70 -306 -50 -674 51
-945 169 -453 539 -1031 1114 -1740 233 -287 345 -397 438 -431 51 -18 161
-17 213 1 57 20 158 102 227 185 32 38 129 153 216 257 412 488 769 1014 962
1417 93 193 134 300 178 461 60 218 62 235 62 460 0 183 -3 223 -23 314 -180
803 -910 1379 -1737 1370 -60 -1 -144 -5 -185 -10z m418 -979 c271 -77 476
-282 554 -557 32 -112 32 -314 0 -426 -79 -277 -282 -480 -559 -559 -103 -30
-313 -32 -413 -4 -284 78 -492 283 -572 563 -32 112 -32 314 0 426 87 305 325
520 640 577 78 15 268 4 350 -20z"/>
</g>
</svg>
